<?xml version="1.0" encoding="iso-8859-1"?>
<!-- Generator: Adobe Illustrator 19.0.0, SVG Export Plug-In . SVG Version: 6.00 Build 0)  -->
<svg version="1.1" id="Layer_1" xmlns="http://www.w3.org/2000/svg" xmlns:xlink="http://www.w3.org/1999/xlink" x="0px" y="0px"
	 viewBox="0 0 512 512" style="enable-background:new 0 0 512 512;" xml:space="preserve">
<path style="fill:#95673F;" d="M89.043,445.217H55.652c-9.217,0-16.696-7.473-16.696-16.696v-79.74
	c0-23.614,16.554-43.37,41.185-49.163c14.837-3.494,25.598-17.158,25.598-32.489c0-9.223,7.479-16.696,16.696-16.696
	s16.696,7.473,16.696,16.696v128C139.13,422.749,116.663,445.217,89.043,445.217z"/>
<path style="fill:#875334;" d="M456.348,445.217h-33.391c-27.619,0-50.087-22.468-50.087-50.087v-128
	c0-9.223,7.479-16.696,16.696-16.696c9.217,0,16.696,7.473,16.696,16.696c0,15.331,10.761,28.995,25.598,32.489
	c24.631,5.793,41.185,25.549,41.185,49.163v79.74C473.043,437.744,465.565,445.217,456.348,445.217z"/>
<path style="fill:#FFA733;" d="M456.348,411.826h-33.391c-9.22,0-16.696-7.475-16.696-16.696v-128
	c0-18.025,14.289-33.997,32.304-33.409c19.42,0.633,35.288-15.764,33.698-34.82C463.249,89.6,371.757,3.673,262.457,0.334
	c-1.225-0.111-2.45-0.223-3.785-0.223c-0.892,0-1.78,0-2.671,0.11c-1.891-0.11-3.896,0-5.788,0.111c-1.447,0-2.783,0.111-4.23,0.111
	C138.351,5.453,48.64,90.712,39.737,198.9c-1.589,19.056,14.278,35.454,33.699,34.82c18.015-0.587,32.304,15.386,32.304,33.41v128
	c0,9.22-7.475,16.696-16.696,16.696H38.957v50.087c0,27.548,22.539,50.087,50.087,50.087h333.913
	c27.548,0,50.087-22.539,50.087-50.087v-33.391C473.043,419.301,465.568,411.826,456.348,411.826z"/>
<path style="fill:#EE8700;" d="M473.043,411.826v50.087c0,27.548-22.539,50.087-50.087,50.087H256V0.223
	c0.892-0.11,1.78-0.11,2.671-0.11c1.336,0,2.56,0.11,3.785,0.223c109.3,3.338,200.792,89.265,209.806,198.566
	c1.589,19.056-14.278,35.454-33.698,34.82c-18.015-0.588-32.304,15.385-32.304,33.409v128c0,9.22,7.475,16.696,16.696,16.696
	H473.043z"/>
<path d="M256,0c-1.947,0-3.843,0.228-5.78,0.28c2.829-0.132,5.658-0.218,8.47-0.15C257.785,0.119,256.905,0,256,0z"/>
<path d="M258.69,0.13c1.282,0.017,2.541,0.146,3.821,0.186C261.237,0.244,259.969,0.161,258.69,0.13z"/>
<path d="M246.038,0.483c1.394-0.066,2.781-0.165,4.182-0.203C248.824,0.346,247.435,0.368,246.038,0.483z"/>
<path style="fill:#F5DEB2;" d="M262.457,0.334c-1.225-0.111-2.45-0.223-3.785-0.223c-0.892,0-1.78,0-2.671,0.11
	c-1.891-0.11-3.896,0-5.788,0.111c-1.447,0-2.783,0.111-4.23,0.111c-3.896,0.334-7.903,0.779-11.797,1.558
	c-66.784,12.133-110.638,80.919-90.046,148.926c1.003,3.117,2.116,6.233,3.339,9.35c7.903,10.574,24.598,8.238,29.05-4.452
	c13.135-36.842,46.303-55.318,79.471-55.318s66.337,18.477,79.471,55.318c4.341,12.355,20.48,15.137,28.716,4.786
	c1.337-3.339,2.56-6.901,3.563-10.463c3.228-10.685,5.12-21.816,5.12-33.28C372.87,55.986,325.788,3.896,262.457,0.334z"/>
<path style="fill:#EFCB99;" d="M372.87,116.87c0,11.464-1.891,22.595-5.12,33.28c-1.003,3.562-2.226,7.123-3.563,10.463
	c-8.237,10.351-24.375,7.569-28.717-4.786c-13.133-36.842-46.302-55.318-79.47-55.318V0.223c0.892-0.11,1.78-0.11,2.671-0.11
	c1.336,0,2.56,0.11,3.785,0.223C325.788,3.896,372.87,55.986,372.87,116.87z"/>
<path style="fill:#95673F;" d="M356.174,478.609c-27.603,0-50.087-22.483-50.087-50.087V231.847c0-5.788,3.117-11.241,8.459-14.247
	c22.706-13.134,39.958-33.391,49.642-56.988c1.337-3.339,2.56-6.901,3.563-10.463c0-1.892-0.223-3.673-0.892-5.454
	C348.495,93.05,302.303,67.117,256,67.117s-92.495,25.934-110.859,77.579c-0.78,2.003-1.003,4.118-1.003,6.233
	c1.003,3.117,2.116,6.233,3.339,9.35c9.461,23.708,26.823,44.077,50.532,57.656c4.896,2.783,7.903,8.125,7.903,13.913v196.675
	c0,27.603-22.483,50.087-50.087,50.087c-9.239,0-16.696,7.457-16.696,16.696S146.586,512,155.825,512h200.348
	c9.239,0,16.696-7.457,16.696-16.696C372.87,486.066,365.413,478.609,356.174,478.609z"/>
<path style="fill:#875334;" d="M372.87,495.304c0,9.238-7.456,16.696-16.696,16.696H256V67.117
	c46.301,0,92.495,25.934,110.859,77.579c0.669,1.781,0.892,3.562,0.892,5.454c-1.003,3.562-2.226,7.123-3.563,10.463
	c-9.684,23.597-26.935,43.854-49.642,56.988c-5.343,3.005-8.459,8.459-8.459,14.247v196.675c0,27.603,22.483,50.087,50.087,50.087
	C365.413,478.609,372.87,486.066,372.87,495.304z"/>
<path style="fill:#6E6057;" d="M322.783,411.826H189.217c-9.217,0-16.696-7.473-16.696-16.696c0-9.223,7.479-16.696,16.696-16.696
	h133.565c9.217,0,16.696,7.473,16.696,16.696C339.478,404.353,332,411.826,322.783,411.826z"/>
<path style="fill:#615349;" d="M322.783,378.435H256v33.391h66.783c9.217,0,16.696-7.473,16.696-16.696
	C339.478,385.908,332,378.435,322.783,378.435z"/>
<path style="fill:#6E6057;" d="M322.783,300.522H189.217c-9.217,0-16.696-7.473-16.696-16.696S180,267.13,189.217,267.13h133.565
	c9.217,0,16.696,7.473,16.696,16.696S332,300.522,322.783,300.522z"/>
<path style="fill:#615349;" d="M322.783,267.13H256v33.391h66.783c9.217,0,16.696-7.473,16.696-16.696S332,267.13,322.783,267.13z"
	/>
<g>
</g>
<g>
</g>
<g>
</g>
<g>
</g>
<g>
</g>
<g>
</g>
<g>
</g>
<g>
</g>
<g>
</g>
<g>
</g>
<g>
</g>
<g>
</g>
<g>
</g>
<g>
</g>
<g>
</g>
</svg>
